<svg width="210" height="297" viewBox="0 0 210 297" fill="none" xmlns="http://www.w3.org/2000/svg">
<g id="hamster 1">
<g id="body">
<path id="path4189" d="M82.3908 43.7018C82.695 43.7018 82.9415 43.6196 82.9415 43.5182C82.9415 43.4168 82.695 43.3347 82.3908 43.3347C82.0867 43.3347 81.8401 43.4168 81.8401 43.5182C81.8401 43.6196 82.0867 43.7018 82.3908 43.7018Z" fill="#EDEDE2"/>
<path id="ellipse4191" d="M82.3908 43.7018C82.695 43.7018 82.9415 43.6196 82.9415 43.5182C82.9415 43.4168 82.695 43.3347 82.3908 43.3347C82.0867 43.3347 81.8401 43.4168 81.8401 43.5182C81.8401 43.6196 82.0867 43.7018 82.3908 43.7018Z" fill="#EDEDE2"/>
<g id="g4148">
<path id="path3336" fill-rule="evenodd" clip-rule="evenodd" d="M203.288 185.527C203.288 161.931 192.616 139.301 173.616 122.611C154.616 105.92 128.843 96.5357 101.964 96.5193C75.0848 96.5029 49.2979 105.856 30.2715 122.524C11.2451 139.191 0.536356 161.808 0.499008 185.403" fill="#FFD382"/>
<path id="rect4146" d="M194.244 174.231H9.46528C4.23774 174.231 0 178.469 0 183.697V185.535C0 190.762 4.23774 195 9.46528 195H194.244C199.472 195 203.71 190.762 203.71 185.535V183.697C203.71 178.469 199.472 174.231 194.244 174.231Z" fill="#FFD382"/>
</g>
<g id="g4267">
<path id="path4160" d="M38.8387 128.144C47.3548 128.144 54.2585 118.939 54.2585 107.584C54.2585 96.2291 47.3548 87.0242 38.8387 87.0242C30.3226 87.0242 23.4189 96.2291 23.4189 107.584C23.4189 118.939 30.3226 128.144 38.8387 128.144Z" fill="#FFD382"/>
<path id="path4263" d="M38.4649 116.339C43.7698 116.339 48.0703 111.051 48.0703 104.527C48.0703 98.0036 43.7698 92.7151 38.4649 92.7151C33.16 92.7151 28.8595 98.0036 28.8595 104.527C28.8595 111.051 33.16 116.339 38.4649 116.339Z" fill="#E89DAA"/>
</g>
<g id="g4271">
<path id="ellipse4273" d="M164.871 128.144C173.387 128.144 180.291 118.939 180.291 107.584C180.291 96.2291 173.387 87.0242 164.871 87.0242C156.355 87.0242 149.451 96.2291 149.451 107.584C149.451 118.939 156.355 128.144 164.871 128.144Z" fill="#FFD382"/>
<path id="ellipse4275" d="M164.497 116.339C169.802 116.339 174.103 111.051 174.103 104.527C174.103 98.0036 169.802 92.7151 164.497 92.7151C159.192 92.7151 154.892 98.0036 154.892 104.527C154.892 111.051 159.192 116.339 164.497 116.339Z" fill="#E89DAA"/>
</g>
<path id="nose" d="M106.893 159.153C106.985 159.9 106.815 160.653 106.4 161.328C105.986 162.002 105.344 162.571 104.546 162.97C103.749 163.369 102.827 163.583 101.886 163.588C100.944 163.592 100.02 163.387 99.2163 162.996C98.4128 162.604 97.762 162.042 97.3372 161.372C96.9123 160.702 96.7302 159.95 96.8114 159.202" fill="#D46377"/>
<path id="left cheek" d="M53.3085 174.231C62.3412 174.231 69.6637 170.047 69.6637 164.886C69.6637 159.724 62.3412 155.54 53.3085 155.54C44.2758 155.54 36.9533 159.724 36.9533 164.886C36.9533 170.047 44.2758 174.231 53.3085 174.231Z" fill="#E48A9A"/>
<path id="right cheek" d="M150.401 174.751C159.434 174.751 166.756 170.566 166.756 165.405C166.756 160.243 159.434 156.059 150.401 156.059C141.369 156.059 134.046 160.243 134.046 165.405C134.046 170.566 141.369 174.751 150.401 174.751Z" fill="#E48A9A"/>
</g>
<g id="mouth">
<path id="mouth_2" d="M115.418 171.199C115.667 172.727 115.208 174.266 114.092 175.644C112.976 177.022 111.248 178.184 109.101 179C106.954 179.816 104.473 180.253 101.938 180.262C99.4035 180.272 96.9145 179.853 94.7511 179.053C92.5877 178.253 90.8357 177.104 89.6919 175.734C88.5481 174.365 88.0578 172.829 88.2763 171.3" fill="#F74343"/>
</g>
<g id="eyes">
<path id="ellipse4187" d="M121.671 155.435C125.625 155.435 128.83 150.422 128.83 144.238C128.83 138.053 125.625 133.04 121.671 133.04C117.717 133.04 114.512 138.053 114.512 144.238C114.512 150.422 117.717 155.435 121.671 155.435Z" fill="#020200"/>
<path id="ellipse4229" d="M82.0386 155.435C85.9925 155.435 89.1978 150.422 89.1978 144.238C89.1978 138.053 85.9925 133.04 82.0386 133.04C78.0847 133.04 74.8794 138.053 74.8794 144.238C74.8794 150.422 78.0847 155.435 82.0386 155.435Z" fill="#020200"/>
<path id="path4204" d="M125.303 137.537C125.303 138.431 124.965 139.292 124.357 139.949C123.749 140.605 122.914 141.01 122.02 141.082C121.126 141.154 120.238 140.887 119.532 140.336C118.826 139.785 118.354 138.989 118.21 138.107C118.067 137.225 118.262 136.321 118.756 135.575C119.251 134.83 120.01 134.297 120.881 134.084C121.752 133.87 122.671 133.991 123.457 134.423C124.242 134.854 124.836 135.565 125.12 136.413" fill="white"/>
<path id="path4231" d="M85.6703 137.537C85.6703 138.431 85.3326 139.292 84.7243 139.949C84.1161 140.605 83.2819 141.01 82.3878 141.082C81.4937 141.154 80.6053 140.887 79.8993 140.336C79.1933 139.785 78.7215 138.989 78.5779 138.107C78.4342 137.225 78.6291 136.321 79.1239 135.575C79.6187 134.83 80.3771 134.297 81.248 134.084C82.119 133.87 83.0388 133.991 83.8243 134.423C84.6098 134.854 85.2035 135.565 85.4871 136.413" fill="white"/>
</g>
</g>
</svg>
