<svg width="2117" height="1849" viewBox="0 0 2117 1849" fill="none" xmlns="http://www.w3.org/2000/svg">
<g id="hamwheel 1">
<g id="x31">
<g id="Wheel">
<path id="Vector" d="M1069.95 356.94C708.201 356.94 414.94 650.201 414.94 1011.99C414.94 1373.74 708.201 1667 1069.95 1667C1431.7 1667 1725 1373.74 1725 1011.99C1725 650.201 1431.7 356.94 1069.95 356.94ZM1069.95 1635.76C726.004 1635.76 446.179 1355.93 446.179 1011.99C446.179 668.014 726.014 388.179 1069.95 388.179C1413.93 388.179 1693.76 668.014 1693.76 1011.99C1693.76 1355.93 1413.94 1635.76 1069.95 1635.76Z" fill="#8B3C97"/>
<g id="Group">
<path id="Vector_2" d="M1070.13 1643.9C1420.3 1643.9 1704.16 1360.04 1704.16 1009.87C1704.16 659.707 1420.3 375.842 1070.13 375.842C719.969 375.842 436.105 659.707 436.105 1009.87C436.105 1360.04 719.969 1643.9 1070.13 1643.9Z" fill="#884A9D"/>
<path id="Vector_3" d="M1087.78 368.842L1073.66 739.024L1059.54 368.842H1087.78Z" fill="#662978"/>
<path id="Vector_4" d="M919.207 386.998L1003.05 748.102L892.101 394.138L919.207 386.998Z" fill="#662978"/>
<path id="Vector_5" d="M762.649 448.527L935.474 776.345L738.783 462.35L762.649 448.527Z" fill="#662978"/>
<path id="Vector_6" d="M626.221 548.386L878.988 819.718L606.648 567.895L626.221 548.386Z" fill="#662978"/>
<path id="Vector_7" d="M520.646 680.521L835.616 877.212L506.789 704.387L520.646 680.521Z" fill="#662978"/>
<path id="Vector_8" d="M452.429 833.839L807.373 943.784L445.261 860.706L452.429 833.839Z" fill="#662978"/>
<path id="Vector_9" d="M427.105 1001.28L797.286 1015.4L427.105 1029.52V1001.28Z" fill="#662978"/>
<path id="Vector_10" d="M445.261 1169.08L807.373 1086.01L452.429 1195.95L445.261 1169.08Z" fill="#662978"/>
<path id="Vector_11" d="M506.789 1326.3L835.616 1152.58L520.646 1350.28L506.789 1326.3Z" fill="#662978"/>
<path id="Vector_12" d="M606.648 1462.83L878.988 1210.07L626.23 1482.41L606.648 1462.83Z" fill="#662978"/>
<path id="Vector_13" d="M738.783 1567.45L935.474 1253.45L762.65 1581.26L738.783 1567.45Z" fill="#662978"/>
<path id="Vector_14" d="M892.101 1635.64L1003.05 1281.69L919.207 1642.79L892.101 1635.64Z" fill="#662978"/>
<path id="Vector_15" d="M1059.54 1661.96L1073.66 1290.77L1087.78 1661.96H1059.54Z" fill="#662978"/>
<path id="Vector_16" d="M1228.12 1642.79L1144.27 1281.69L1255.22 1635.64L1228.12 1642.79Z" fill="#662978"/>
<path id="Vector_17" d="M1384.67 1581.26L1211.85 1253.45L1408.54 1567.45L1384.67 1581.26Z" fill="#662978"/>
<path id="Vector_18" d="M1521.17 1482.41L1269.34 1210.07L1540.68 1462.84L1521.17 1482.41Z" fill="#662978"/>
<path id="Vector_19" d="M1626.68 1350.28L1311.71 1152.58L1640.53 1326.29L1626.68 1350.28Z" fill="#662978"/>
<path id="Vector_20" d="M1694.89 1195.95L1339.95 1086.01L1702.06 1169.09L1694.89 1195.95Z" fill="#662978"/>
<path id="Vector_21" d="M1720.22 1029.52L1350.04 1014.9L1720.22 1000.27V1029.52Z" fill="#662978"/>
<path id="Vector_22" d="M1702.06 860.699L1339.95 943.784L1694.9 833.839L1702.06 860.699Z" fill="#662978"/>
<path id="Vector_23" d="M1640.53 704.387L1311.71 877.212L1626.68 680.521L1640.53 704.387Z" fill="#662978"/>
<path id="Vector_24" d="M1540.68 566.959L1268.33 819.718L1521.09 547.377L1540.68 566.959Z" fill="#662978"/>
<path id="Vector_25" d="M1408.54 462.341L1211.85 776.345L1384.68 448.527L1408.54 462.341Z" fill="#662978"/>
<path id="Vector_26" d="M1255.22 394.138L1144.27 748.102L1228.12 386.998L1255.22 394.138Z" fill="#662978"/>
</g>
<path id="Vector_27" d="M1557.11 1011.99C1557.11 1280.58 1338.58 1499.11 1069.95 1499.11C801.321 1499.11 582.833 1280.58 582.833 1011.99C582.833 743.361 801.321 524.833 1069.95 524.833C1338.58 524.833 1557.11 743.361 1557.11 1011.99Z" fill="#7C499D"/>
<g id="Group_2">
<g id="Group_3" opacity="0.3">
<path id="Vector_28" opacity="0.3" d="M688.334 616.553L674.533 630.353L1458.61 1414.43L1472.41 1400.63L688.334 616.553Z" fill="#552364"/>
</g>
<g id="Group_4" opacity="0.3">
<path id="Vector_29" opacity="0.3" d="M534.552 862.686L529.501 881.538L1600.55 1168.51L1605.6 1149.66L534.552 862.686Z" fill="#552364"/>
</g>
<g id="Group_5" opacity="0.3">
<path id="Vector_30" opacity="0.3" d="M1595.5 865.693L524.452 1152.67L529.503 1171.52L1600.55 884.545L1595.5 865.693Z" fill="#552364"/>
</g>
<g id="Group_6" opacity="0.3">
<path id="Vector_31" opacity="0.3" d="M1444.81 624.83L660.732 1408.91L674.533 1422.71L1458.61 638.631L1444.81 624.83Z" fill="#552364"/>
</g>
<g id="Group_7" opacity="0.3">
<path id="Vector_32" opacity="0.3" d="M1193.8 491.616L906.822 1562.66L925.674 1567.72L1212.65 496.667L1193.8 491.616Z" fill="#552364"/>
</g>
<g id="Group_8" opacity="0.3">
<path id="Vector_33" opacity="0.3" d="M941.554 495.99L922.702 501.041L1209.68 1572.09L1228.53 1567.04L941.554 495.99Z" fill="#552364"/>
</g>
</g>
<path id="Vector_34" d="M1062.16 1055.6C1082.98 1055.6 1099.85 1038.73 1099.85 1017.92C1099.85 997.109 1082.98 980.237 1062.16 980.237C1041.35 980.237 1024.48 997.109 1024.48 1017.92C1024.48 1038.73 1041.35 1055.6 1062.16 1055.6Z" fill="white"/>
</g>
<path id="Vector_35" opacity="0.3" d="M698.618 1499.32C698.618 1499.32 850.887 1618.22 1082.16 1618.22C1313.44 1618.22 1475.72 1486.48 1459.91 1436.17C1444.11 1385.85 1299.75 1527.2 1070.8 1527.2C841.849 1527.2 787.139 1430.97 748.769 1403.99C710.39 1377 582.884 1381.45 698.618 1499.32Z" fill="#233F7F"/>
<g id="FR">
<path id="leg" d="M929.855 1474.17C929.855 1474.17 953.952 1508.04 952.927 1512.92C951.903 1517.79 943.589 1528.41 958.507 1528.2C973.424 1527.99 988.841 1516.31 983.422 1503.06C978.924 1492.06 977.725 1470.76 959.527 1462.32C941.328 1453.87 908.531 1440.79 929.855 1474.17Z" fill="#DC9B87"/>
</g>
<g id="BR">
<path id="leg_2" d="M1177.86 1475.24C1177.86 1475.24 1173.66 1502.93 1163.04 1510.03C1152.41 1517.12 1144.77 1537.1 1164.3 1533.24C1183.82 1529.39 1191.92 1523.85 1202.35 1510.9C1212.79 1497.96 1231.35 1461.2 1230 1453.55C1228.65 1445.91 1201.07 1431.06 1177.86 1475.24Z" fill="#DC9B87"/>
</g>
<g id="Belly 1">
<path id="x3C Path x3E  1" d="M1429.25 1319.42C1410.04 1322.42 1384.33 1323.34 1351.75 1318.28C1268.65 1305.34 1209.41 1330.93 1197.85 1342.66C1186.29 1354.34 1110.93 1412.36 1028.68 1399.16C946.389 1385.92 903.906 1359.42 903.906 1359.42C903.906 1359.42 821.408 1306.27 718.668 1360.43C718.399 1360.31 718.132 1360.24 717.866 1360.17C679.699 1349.14 731.255 1180.45 889.738 1179.51C889.738 1179.51 890.576 1179.69 892.115 1179.95C894.019 1188.59 899.673 1196.52 907.996 1203.02C907.996 1203.02 944.286 1274.14 1101.19 1255.47C1258.05 1236.81 1333.95 1224.63 1407.96 1288.78C1408 1288.81 1408 1288.81 1408.05 1288.86C1416.25 1298.79 1423.59 1309.06 1429.25 1319.42Z" fill="#E9C379"/>
<path id="Vector_36" d="M1257.12 1379.22C1257.12 1379.22 1262.78 1443.29 1077.22 1454.46C891.703 1465.58 868.5 1371.13 868.5 1371.13C835.171 1350.6 778.877 1345.44 727.564 1364.81C724.457 1362.85 721.547 1361.35 718.668 1360.42C821.408 1306.26 903.906 1359.41 903.906 1359.41C903.906 1359.41 946.389 1385.92 1028.68 1399.15C1110.92 1412.35 1186.29 1354.34 1197.85 1342.65C1209.41 1330.92 1268.64 1305.33 1351.75 1318.27C1384.32 1323.34 1410.04 1322.41 1429.25 1319.41C1431.66 1323.84 1433.78 1328.26 1435.49 1332.7C1379.41 1376.4 1257.12 1379.22 1257.12 1379.22Z" fill="white"/>
<path id="x3C Path x3E" d="M1406.08 1410.6C1333.53 1454.94 1211.36 1505.62 1010.76 1495.46C826.521 1486.09 765.832 1389.06 727.563 1364.8C778.877 1345.43 835.171 1350.6 868.5 1371.12C868.5 1371.12 891.693 1465.57 1077.22 1454.45C1262.78 1443.28 1257.12 1379.21 1257.12 1379.21C1257.12 1379.21 1379.41 1376.39 1435.49 1332.7C1446.46 1360.7 1442.36 1388.44 1406.08 1410.6Z" fill="#D1D3D4"/>
</g>
<g id="FL">
<g id="FLS">
<path id="Vector_37" d="M760.341 1476.34C760.341 1476.34 744.256 1483.51 739.946 1490.52C735.636 1497.53 739.115 1498.82 742.493 1495.33C745.872 1491.83 750.985 1490.46 754.349 1486.77C757.709 1483.07 774.792 1468.04 760.341 1476.34Z" fill="#F9AF9D"/>
<path id="Vector_38" d="M812.537 1488.77C812.537 1488.77 777.619 1494.99 769.769 1495.82C761.919 1496.65 759.771 1502.29 753.323 1506.04C746.874 1509.79 732.737 1506.04 732.737 1506.04C732.737 1506.04 726.042 1500.15 738.939 1488.77C751.835 1477.38 754.615 1482 767.512 1471.81C780.409 1461.62 804.592 1444.1 809.481 1451.98C814.366 1459.86 830.913 1479.13 812.537 1488.77Z" fill="#DC9B87"/>
</g>
<path id="Vector_39" d="M921.989 1442.31C913.223 1453.24 894.408 1467.73 855.36 1476.91C798.597 1490.27 764.185 1477.48 806.777 1441.97C816.073 1434.22 835.197 1418.02 835.197 1418.02C837.147 1416.96 839.104 1416.01 841.054 1415.16C831.797 1422.79 822.857 1432.42 821.399 1442.09C818.205 1463.17 840 1462 870.909 1438.83C884.256 1428.83 886.657 1419 884.216 1411.59C909.657 1417.51 927.529 1435.41 921.989 1442.31Z" fill="#D1D3D4"/>
<path id="Vector_40" d="M870.909 1438.83C840 1462 818.205 1463.17 821.399 1442.09C822.857 1432.42 831.797 1422.79 841.054 1415.16C856.009 1408.71 871.123 1408.56 884.224 1411.6C886.657 1419 884.256 1428.83 870.909 1438.83Z" fill="white"/>
</g>
<g id="BL">
<path id="Vector_41" d="M1420.23 1350.83C1420.23 1350.83 1438.1 1361.59 1452.35 1357.17C1466.6 1352.75 1473.61 1363.46 1477.42 1389.2C1481.24 1414.94 1476.26 1441.79 1459.41 1442.71C1442.56 1443.62 1430.9 1444.5 1440.88 1431.53C1450.86 1418.56 1458.99 1403.63 1450.19 1390.68C1441.4 1377.73 1414.16 1398.18 1405.13 1393.13C1396.1 1388.07 1382.44 1345.46 1420.23 1350.83Z" fill="#DC9B87"/>
<path id="Vector_42" d="M1450.33 1364.46C1450.33 1364.46 1439.66 1360.42 1432.43 1360.66C1425.2 1360.9 1431.28 1369.14 1441.74 1369.21C1452.2 1369.28 1463.99 1371.59 1467.37 1374.36C1470.74 1377.13 1470.53 1373.21 1465.15 1363.16C1459.78 1353.12 1457.5 1363.08 1450.33 1364.46Z" fill="#F9AF9D"/>
<path id="Vector_43" d="M1406.07 1410.6C1375.42 1432.91 1234.4 1418.87 1234.4 1418.87C1210.29 1405.59 1197.87 1401.34 1199.41 1371.1C1211.31 1378.16 1233.77 1387.81 1272.45 1393.09C1338.11 1402.05 1382.39 1388.09 1391.83 1369.07C1399.66 1353.32 1391.33 1335.43 1380.2 1324.2C1402.9 1334.69 1414.75 1347.45 1420.22 1350.84C1428.97 1356.27 1436.75 1388.33 1406.07 1410.6Z" fill="#D1D3D4"/>
<path id="Vector_44" d="M1391.84 1369.06C1382.4 1388.09 1338.11 1402.04 1272.46 1393.08C1233.77 1387.8 1211.3 1378.15 1199.42 1371.09C1199.71 1365.38 1200.5 1358.69 1201.79 1350.88C1209.98 1301.7 1266.85 1304.52 1326.62 1310.26C1349.01 1312.4 1366.52 1317.9 1380.17 1324.15C1380.17 1324.15 1380.19 1324.18 1380.22 1324.17C1391.34 1335.42 1399.67 1353.31 1391.84 1369.06Z" fill="white"/>
</g>
<g id="BodyRun">
<path id="Vector_45" d="M1407.95 1288.76C1333.95 1224.61 1258.05 1236.79 1101.19 1255.45C944.285 1274.12 907.995 1203 907.995 1203C899.671 1196.5 894.018 1188.57 892.114 1179.92C911.239 1183.5 1041.05 1206.92 1098.16 1199.76C1159.9 1192.05 1326.06 1206.01 1374.31 1252.83C1385.7 1263.89 1397.52 1276.04 1407.95 1288.76Z" fill="#FBDAA9"/>
<path id="Vector_46" d="M802.847 1153.71C802.847 1153.71 807.331 1136.23 817.164 1121.23C821.875 1114.05 827.414 1108.35 835.072 1105.95C834.187 1106.95 819.966 1122.97 837.632 1139.49C853.309 1154.16 868.59 1150.04 879.746 1138.39C876.414 1150.13 869.401 1161.8 877.237 1167.7C891.636 1178.57 798.414 1185.72 802.847 1153.71Z" fill="#E2B97B"/>
<path id="Head" d="M928.285 1336.42C920.648 1344.98 912.914 1352.3 905.04 1358.54C780.774 1305.78 755.615 1330.4 724.162 1307.97C692.739 1285.52 684.177 1273.15 655.533 1262.61C642.668 1257.87 630.327 1256.63 620.584 1256.72C643.615 1238.67 697.529 1197.05 718.23 1186.13C744.821 1172.07 848.28 1152.35 900.741 1189.21C915.065 1199.27 930.827 1206.21 945.191 1209.73C970.343 1250.62 960.079 1300.82 928.285 1336.42Z" fill="#E9C379"/>
<path id="Vector_47" d="M879.746 1138.39C868.59 1150.04 853.298 1154.16 837.632 1139.49C819.966 1122.97 834.186 1106.94 835.072 1105.95C835.072 1105.95 835.072 1105.95 835.081 1105.92C843.453 1103.29 854.183 1092.73 869.33 1100.25C882.618 1106.84 882.575 1128.55 879.746 1138.39Z" fill="#E8C278"/>
<path id="Vector_48" d="M945.181 1209.73C930.817 1206.21 915.055 1199.27 900.731 1189.22C848.28 1152.35 744.821 1172.07 718.219 1186.13C697.519 1197.05 643.606 1238.68 620.574 1256.72C613.618 1256.79 607.98 1257.52 604.518 1258.12C608.617 1253.06 613.695 1247.6 619.884 1241.6C661.064 1201.74 664.386 1179.58 739.751 1154.8C815.125 1130 885.284 1160.92 885.284 1160.92C913.951 1173.55 933.425 1190.63 945.181 1209.73Z" fill="#FBDAA9"/>
<path id="Vector_49" d="M905.04 1358.54C898.407 1363.8 891.69 1368.28 884.869 1372.14C884.869 1372.14 884.838 1372.13 884.829 1372.15C804.514 1384.84 743.174 1373.25 679.698 1349.11C616.213 1325 604.322 1277.75 604.322 1277.75C601.33 1275.11 598.411 1272.89 595.586 1271.1C597.821 1267.06 600.771 1262.78 604.528 1258.12C612.825 1256.69 633.432 1254.46 655.522 1262.61C684.166 1273.14 692.729 1285.52 724.152 1307.97C755.615 1330.4 780.763 1305.78 905.04 1358.54Z" fill="white"/>
<path id="Vector_50" d="M964.638 1221.65C944.688 1260.71 931.934 1266.18 925.303 1265C938.901 1255.71 947.141 1239.49 964.389 1207.59C981.757 1175.48 979.946 1183.24 948.972 1188.97C924.739 1193.44 892.512 1210.11 879.621 1217.15L882.274 1211.14L851.129 1208.69L863.793 1197.28C874.85 1192.74 906.676 1180.77 937.318 1179.54C957.336 1178.73 970.552 1178.78 980.111 1180.71C980.105 1188.02 975.475 1200.43 964.638 1221.65Z" fill="#E2B97C"/>
<g id="Eye">
<path id="Vector_51" d="M703.346 1266.18C703.346 1266.18 715.447 1236.99 741.951 1236.21C773.549 1235.28 777.973 1272.64 777.973 1272.64C777.973 1272.64 774.42 1300.21 742.639 1296.28C710.869 1292.36 703.346 1266.18 703.346 1266.18Z" fill="black"/>
<path id="Vector_52" d="M764.832 1258.16C762.925 1262.48 757.87 1264.44 753.544 1262.54C749.218 1260.63 747.256 1255.58 749.163 1251.25C751.069 1246.92 756.125 1244.96 760.451 1246.87C764.777 1248.78 766.738 1253.83 764.832 1258.16Z" fill="white"/>
</g>
<path id="h" d="M884.83 1372.16C850.039 1391.67 811.898 1394.12 766.287 1392.05C701 1389.06 621.379 1356.14 604.058 1327.01C591.739 1306.27 584.135 1292 595.597 1271.11C598.421 1272.9 601.34 1275.12 604.332 1277.76C604.332 1277.76 616.213 1325.01 679.708 1349.12C743.174 1373.25 804.515 1384.85 884.83 1372.16Z" fill="#D1D3D4"/>
<path id="Vector_53" d="M964.389 1207.6C947.142 1239.5 938.901 1255.72 925.304 1265.01C921.509 1264.33 919.707 1261.47 919.707 1261.47L910.218 1242.79L897.468 1253L892.793 1223.84L875.143 1227.33L879.621 1217.16C892.522 1210.12 924.74 1193.45 948.973 1188.98C979.947 1183.25 981.767 1175.49 964.389 1207.6Z" fill="#E5C8C2"/>
<path id="Vector_54" d="M980.101 1180.71C970.542 1178.79 957.325 1178.73 937.308 1179.54C906.676 1180.77 874.84 1192.74 863.783 1197.28L870.735 1191.01C870.735 1191.01 906.368 1163.76 940.896 1168.23C963.522 1171.19 980.117 1166.86 980.101 1180.71Z" fill="#FBDAA9"/>
<path id="Vector_55" d="M604.528 1258.12C604.528 1258.12 595.688 1254.57 588.448 1268.56C581.207 1282.55 594.942 1302.57 607.189 1291.85C619.426 1281.14 642.951 1272.56 604.528 1258.12Z" fill="#DC9B87"/>
</g>
</g>
</g>
</svg>
