<svg width="2117" height="1849" viewBox="0 0 2117 1849" fill="none" xmlns="http://www.w3.org/2000/svg">
<g id="wheelanimation">
<g id="Group">
<g id="Wheel">
<path id="Vector" d="M1069.9 356.9C708.2 356.9 414.9 650.2 414.9 1011.9C414.9 1373.7 708.2 1666.9 1069.9 1666.9C1431.7 1666.9 1725 1373.6 1725 1011.9C1725 650.2 1431.7 356.9 1069.9 356.9ZM1069.9 1635.8C726 1635.8 446.1 1356 446.1 1012C446.1 668 725.9 388.2 1069.9 388.2C1413.9 388.2 1693.7 668 1693.7 1012C1693.8 1355.9 1413.9 1635.8 1069.9 1635.8Z" fill="#8B3C97"/>
<g id="Group_2">
<path id="Vector 2" d="M1070.1 1643.9C1420.3 1643.9 1704.1 1360 1704.1 1009.9C1704.1 659.7 1420.2 375.9 1070.1 375.9C719.9 375.9 436.1 659.8 436.1 1009.9C436.1 1360 720 1643.9 1070.1 1643.9Z" fill="#884A9D"/>
<path id="Vector 3" d="M1087.8 368.8L1073.7 739L1059.6 368.8H1087.8Z" fill="#662978"/>
<path id="Vector 4" d="M919.2 387L1003 748.1L892.1 394.1L919.2 387Z" fill="#662978"/>
<path id="Vector 5" d="M762.6 448.5L935.4 776.3L738.7 462.3L762.6 448.5Z" fill="#662978"/>
<path id="Vector 6" d="M626.2 548.4L879 819.7L606.6 567.9L626.2 548.4Z" fill="#662978"/>
<path id="Vector 7" d="M520.6 680.5L835.6 877.2L506.8 704.4L520.6 680.5Z" fill="#662978"/>
<path id="Vector 8" d="M452.4 833.8L807.3 943.7L445.2 860.6L452.4 833.8Z" fill="#662978"/>
<path id="Vector 9" d="M427.1 1001.3L797.3 1015.4L427.1 1029.5V1001.3V1001.3Z" fill="#662978"/>
<path id="Vector 10" d="M445.3 1169.1L807.4 1086L452.5 1195.9L445.3 1169.1Z" fill="#662978"/>
<path id="Vector 11" d="M506.8 1326.3L835.6 1152.6L520.6 1350.3L506.8 1326.3Z" fill="#662978"/>
<path id="Vector 12" d="M606.6 1462.8L879 1210.1L626.2 1482.4L606.6 1462.8Z" fill="#662978"/>
<path id="Vector 13" d="M738.8 1567.4L935.5 1253.4L762.7 1581.2L738.8 1567.4Z" fill="#662978"/>
<path id="Vector 14" d="M892.1 1635.6L1003 1281.6L919.2 1642.7L892.1 1635.6Z" fill="#662978"/>
<path id="Vector 15" d="M1059.5 1662L1073.6 1290.8L1087.7 1662H1059.5Z" fill="#662978"/>
<path id="Vector 16" d="M1228.1 1642.8L1144.3 1281.7L1255.2 1635.7L1228.1 1642.8Z" fill="#662978"/>
<path id="Vector 17" d="M1384.7 1581.3L1211.9 1253.5L1408.6 1567.5L1384.7 1581.3Z" fill="#662978"/>
<path id="Vector 18" d="M1521.2 1482.4L1269.4 1210.1L1540.7 1462.9L1521.2 1482.4Z" fill="#662978"/>
<path id="Vector 19" d="M1626.7 1350.3L1311.7 1152.6L1640.5 1326.3L1626.7 1350.3Z" fill="#662978"/>
<path id="Vector 20" d="M1694.9 1195.9L1339.9 1086L1702 1169.1L1694.9 1195.9Z" fill="#662978"/>
<path id="Vector 21" d="M1720.2 1029.5L1350 1014.9L1720.2 1000.3V1029.5Z" fill="#662978"/>
<path id="Vector 22" d="M1702.1 860.7L1340 943.8L1695 833.9L1702.1 860.7Z" fill="#662978"/>
<path id="Vector 23" d="M1640.5 704.4L1311.7 877.2L1626.7 680.5L1640.5 704.4Z" fill="#662978"/>
<path id="Vector 24" d="M1540.7 567L1268.3 819.8L1521.1 547.5L1540.7 567Z" fill="#662978"/>
<path id="Vector 25" d="M1408.5 462.3L1211.8 776.3L1384.6 448.5L1408.5 462.3Z" fill="#662978"/>
<path id="Vector 26" d="M1255.2 394.1L1144.3 748.1L1228.1 387L1255.2 394.1Z" fill="#662978"/>
</g>
<path id="Vector 27" d="M1557.1 1012C1557.1 1280.6 1338.6 1499.1 1069.9 1499.1C801.3 1499.1 582.8 1280.6 582.8 1012C582.8 743.4 801.3 524.8 1069.9 524.8C1338.6 524.8 1557.1 743.4 1557.1 1012Z" fill="#7C499D"/>
<g id="Group 2">
<g id="Group 3" opacity="0.3">
<path id="Vector 28" opacity="0.3" d="M688.3 616.6L674.5 630.4L1458.6 1414.5L1472.4 1400.7L688.3 616.6Z" fill="#552364"/>
</g>
<g id="Group 4" opacity="0.3">
<path id="Vector 29" opacity="0.3" d="M534.6 862.7L529.5 881.6L1600.5 1168.6L1605.5 1149.8L534.6 862.7Z" fill="#552364"/>
</g>
<g id="Group 5" opacity="0.3">
<path id="Vector 30" opacity="0.3" d="M1595.5 865.7L524.5 1152.7L529.6 1171.5L1600.6 884.5L1595.5 865.7Z" fill="#552364"/>
</g>
<g id="Group 6" opacity="0.3">
<path id="Vector 31" opacity="0.3" d="M1444.8 624.8L660.7 1408.9L674.5 1422.7L1458.6 638.6L1444.8 624.8Z" fill="#552364"/>
</g>
<g id="Group 7" opacity="0.3">
<path id="Vector 32" opacity="0.3" d="M1193.8 491.6L906.8 1562.6L925.7 1567.7L1212.7 496.6L1193.8 491.6Z" fill="#552364"/>
</g>
<g id="Group 8" opacity="0.3">
<path id="Vector 33" opacity="0.3" d="M941.6 496L922.7 501.1L1209.7 1572.1L1228.5 1567.1L941.6 496Z" fill="#552364"/>
</g>
</g>
<path id="Vector 34" d="M1062.2 1055.6C1083 1055.6 1099.9 1038.7 1099.9 1017.9C1099.9 997.1 1083 980.2 1062.2 980.2C1041.4 980.2 1024.5 997.1 1024.5 1017.9C1024.5 1038.7 1041.3 1055.6 1062.2 1055.6Z" fill="white"/>
</g>
<path id="Vector 35" opacity="0.3" d="M698.6 1499.3C698.6 1499.3 850.9 1618.2 1082.1 1618.2C1313.4 1618.2 1475.7 1486.5 1459.9 1436.2C1444.1 1385.9 1299.7 1527.2 1070.8 1527.2C841.8 1527.2 787.1 1431 748.8 1404C710.4 1377 582.9 1381.4 698.6 1499.3Z" fill="#233F7F"/>
<g id="FR">
<path id="leg" d="M929.9 1474.2C929.9 1474.2 954 1508.1 953 1513C952 1517.9 943.7 1528.5 958.6 1528.3C973.5 1528.1 988.9 1516.4 983.5 1503.2C979 1492.2 977.8 1470.9 959.6 1462.5C941.3 1453.9 908.5 1440.8 929.9 1474.2Z" fill="#DC9B87"/>
</g>
<g id="BR">
<path id="leg 2" d="M1177.9 1475.2C1177.9 1475.2 1173.7 1502.9 1163.1 1510C1152.5 1517.1 1144.8 1537.1 1164.4 1533.2C1183.9 1529.4 1192 1523.8 1202.4 1510.9C1212.8 1498 1231.4 1461.2 1230.1 1453.6C1228.7 1445.9 1201.1 1431.1 1177.9 1475.2Z" fill="#DC9B87"/>
</g>
<g id="Bell">
<path id="Vector_2" d="M1429.3 1319.4C1410.1 1322.4 1384.4 1323.3 1351.8 1318.3C1268.7 1305.4 1209.5 1331 1197.9 1342.7C1186.3 1354.4 1111 1412.4 1028.7 1399.2C946.4 1386 903.9 1359.5 903.9 1359.5C903.9 1359.5 821.4 1306.3 718.7 1360.5C718.4 1360.4 718.2 1360.3 717.9 1360.2C679.7 1349.2 735.4 1220.5 879.1 1202C879.1 1202 830.5 1225.7 832 1226C833.9 1234.6 899.7 1196.5 908 1203C908 1203 917.9 1216 979 1231C1007.1 1237.9 1054.6 1231.9 1104 1226C1194.9 1226 1257.4 1235.4 1309 1239C1347 1241.6 1376.6 1261.6 1408 1288.8C1408 1288.8 1408 1288.8 1408.1 1288.9C1416.3 1298.8 1423.6 1309.1 1429.3 1319.4Z" fill="#E9C379"/>
<path id="Vector 36" d="M1257.1 1379.2C1257.1 1379.2 1262.8 1443.3 1077.2 1454.4C891.7 1465.5 868.5 1371.1 868.5 1371.1C835.2 1350.6 778.9 1345.4 727.6 1364.8C724.5 1362.8 721.6 1361.3 718.7 1360.4C821.4 1306.2 903.9 1359.4 903.9 1359.4C903.9 1359.4 946.4 1385.9 1028.7 1399.1C1110.9 1412.3 1186.3 1354.3 1197.9 1342.6C1209.5 1330.9 1268.7 1305.3 1351.8 1318.2C1384.4 1323.3 1410.1 1322.3 1429.3 1319.3C1431.7 1323.7 1433.8 1328.1 1435.5 1332.6C1379.4 1376.4 1257.1 1379.2 1257.1 1379.2Z" fill="white"/>
<path id="Vector_3" d="M1406.1 1410.6C1333.6 1454.9 1211.4 1505.6 1010.8 1495.5C826.6 1486.1 765.9 1389.1 727.6 1364.8C778.9 1345.4 835.2 1350.6 868.5 1371.1C868.5 1371.1 891.7 1465.5 1077.2 1454.4C1262.8 1443.2 1257.1 1379.2 1257.1 1379.2C1257.1 1379.2 1379.4 1376.4 1435.5 1332.7C1446.5 1360.7 1442.4 1388.4 1406.1 1410.6Z" fill="#D1D3D4"/>
</g>
<g id="FL">
<g id="FLS">
<path id="Vector 37" d="M754.3 1437.7C754.3 1437.7 738.2 1444.9 733.9 1451.9C729.6 1458.9 733.1 1460.2 736.4 1456.7C739.8 1453.2 744.9 1451.8 748.3 1448.1C751.7 1444.4 768.8 1429.4 754.3 1437.7Z" fill="#F9AF9D"/>
<path id="Vector 38" d="M806.5 1450.1C806.5 1450.1 771.6 1456.3 763.7 1457.2C755.9 1458 753.7 1463.7 747.3 1467.4C740.9 1471.2 726.7 1467.4 726.7 1467.4C726.7 1467.4 720 1461.5 732.9 1450.1C745.8 1438.7 748.6 1443.3 761.5 1433.1C774.4 1422.9 798.6 1405.4 803.5 1413.3C808.4 1421.2 824.9 1440.4 806.5 1450.1Z" fill="#DC9B87"/>
</g>
<path id="Vector 39" d="M916 1403.6C907.2 1414.5 888.4 1429 849.4 1438.2C792.6 1451.6 758.2 1438.8 800.8 1403.3C810.1 1395.6 829.2 1379.4 829.2 1379.4C831.1 1378.3 833.1 1377.4 835.1 1376.5C825.8 1384.1 816.9 1393.8 815.4 1403.4C812.2 1424.5 834 1423.3 864.9 1400.1C878.2 1390.1 880.6 1380.3 878.2 1372.9C903.7 1378.8 921.5 1396.7 916 1403.6Z" fill="#D1D3D4"/>
<path id="Vector 40" d="M864.9 1400.2C834 1423.4 812.2 1424.5 815.4 1403.5C816.9 1393.8 825.8 1384.2 835.1 1376.6C850.1 1370.1 865.2 1370 878.3 1373C880.7 1380.3 878.3 1390.2 864.9 1400.2Z" fill="white"/>
</g>
<g id="BL">
<path id="Vector 41" d="M1450.6 1327.6C1450.6 1327.6 1468.5 1338.4 1482.7 1333.9C1497 1329.5 1504 1340.2 1507.8 1365.9C1511.6 1391.6 1506.6 1418.5 1489.8 1419.4C1473 1420.3 1461.3 1421.2 1471.3 1408.2C1481.3 1395.2 1489.4 1380.3 1480.6 1367.4C1471.8 1354.5 1444.6 1374.9 1435.5 1369.9C1426.4 1364.9 1412.8 1322.3 1450.6 1327.6Z" fill="#DC9B87"/>
<path id="Vector 42" d="M1480.7 1341.3C1480.7 1341.3 1470 1337.3 1462.8 1337.5C1455.6 1337.7 1461.6 1346 1472.1 1346.1C1482.6 1346.2 1494.4 1348.5 1497.7 1351.3C1501.1 1354.1 1500.9 1350.1 1495.5 1340.1C1490.1 1329.9 1487.8 1339.9 1480.7 1341.3Z" fill="#F9AF9D"/>
<path id="Vector 43" d="M1436.4 1387.4C1405.7 1409.7 1264.7 1395.7 1264.7 1395.7C1240.6 1382.4 1228.2 1378.2 1229.7 1347.9C1241.6 1355 1264.1 1364.6 1302.8 1369.9C1368.4 1378.9 1412.7 1364.9 1422.2 1345.9C1430 1330.1 1421.7 1312.3 1410.6 1301C1433.3 1311.5 1445.1 1324.3 1450.6 1327.7C1459.3 1333.1 1467.1 1365.1 1436.4 1387.4Z" fill="#D1D3D4"/>
<path id="Vector 44" d="M1422.2 1345.8C1412.8 1364.8 1368.5 1378.8 1302.8 1369.8C1264.1 1364.5 1241.6 1354.9 1229.7 1347.8C1230 1342.1 1230.8 1335.4 1232.1 1327.6C1240.3 1278.4 1297.2 1281.2 1356.9 1287C1379.3 1289.1 1396.8 1294.6 1410.4 1300.9C1410.4 1300.9 1410.4 1300.9 1410.5 1300.9C1421.7 1312.2 1430 1330.1 1422.2 1345.8Z" fill="white"/>
</g>
<g id="BodyRun">
<path id="Vector 45" d="M1407.9 1288.8C1333.9 1224.6 1258 1236.8 1101.1 1255.5C944.3 1274.1 908 1203 908 1203C899.7 1196.5 894 1188.6 892.1 1179.9C911.2 1183.5 1041 1206.9 1098.1 1199.7C1159.8 1192 1326 1206 1374.3 1252.8C1385.7 1263.9 1397.5 1276 1407.9 1288.8Z" fill="#FBDAA9"/>
<path id="Vector 46" d="M802.8 1153.7C802.8 1153.7 807.3 1136.2 817.1 1121.2C821.8 1114 827.4 1108.3 835 1105.9C834.1 1106.9 819.9 1122.9 837.6 1139.4C853.3 1154.1 868.6 1150 879.7 1138.3C876.4 1150 869.4 1161.7 877.2 1167.6C891.6 1178.6 798.4 1185.7 802.8 1153.7Z" fill="#E2B97B"/>
<path id="Head" d="M928.3 1336.4C920.7 1345 912.9 1352.3 905.1 1358.5C780.8 1305.7 755.7 1330.4 724.2 1307.9C692.8 1285.5 684.2 1273.1 655.6 1262.5C642.7 1257.8 630.4 1256.5 620.7 1256.6C643.7 1238.6 697.6 1196.9 718.3 1186C744.9 1171.9 848.4 1152.2 900.8 1189.1C915.1 1199.2 930.9 1206.1 945.2 1209.6C970.3 1250.6 960.1 1300.8 928.3 1336.4Z" fill="#E9C379"/>
<path id="Vector 47" d="M879.7 1138.4C868.5 1150.1 853.3 1154.2 837.6 1139.5C819.9 1123 834.2 1106.9 835 1106C843.4 1103.4 854.1 1092.8 869.2 1100.3C882.6 1106.8 882.6 1128.6 879.7 1138.4Z" fill="#E8C278"/>
<path id="Vector 48" d="M945.2 1209.7C930.8 1206.2 915.1 1199.2 900.7 1189.2C848.2 1152.3 744.8 1172 718.2 1186.1C697.5 1197 643.6 1238.7 620.6 1256.7C613.6 1256.8 608 1257.5 604.5 1258.1C608.6 1253 613.7 1247.6 619.9 1241.6C661.1 1201.7 664.4 1179.6 739.8 1154.8C815.2 1130 885.3 1160.9 885.3 1160.9C914 1173.6 933.4 1190.6 945.2 1209.7Z" fill="#FBDAA9"/>
<path id="Vector 49" d="M905 1358.5C898.4 1363.8 891.7 1368.2 884.8 1372.1C804.5 1384.8 743.1 1373.2 679.7 1349.1C616.2 1325 604.3 1277.7 604.3 1277.7C601.3 1275.1 598.4 1272.8 595.6 1271C597.8 1267 600.8 1262.7 604.5 1258C612.8 1256.6 633.4 1254.3 655.5 1262.5C684.1 1273 692.7 1285.4 724.1 1307.9C755.6 1330.4 780.8 1305.8 905 1358.5Z" fill="white"/>
<path id="Vector 50" d="M964.6 1221.7C944.6 1260.8 931.9 1266.2 925.3 1265C938.9 1255.7 947.1 1239.5 964.4 1207.6C981.8 1175.5 980 1183.3 949 1189C924.8 1193.5 892.5 1210.1 879.6 1217.2L882.3 1211.2L851.2 1208.7L863.9 1197.3C875 1192.8 906.8 1180.8 937.4 1179.6C957.4 1178.8 970.6 1178.8 980.2 1180.8C980.1 1188 975.5 1200.4 964.6 1221.7Z" fill="#E2B97C"/>
<g id="Eye">
<path id="Vector 51" d="M703.3 1266.2C703.3 1266.2 715.4 1237 741.9 1236.2C773.5 1235.3 777.9 1272.6 777.9 1272.6C777.9 1272.6 774.3 1300.2 742.6 1296.2C710.9 1292.4 703.3 1266.2 703.3 1266.2Z" fill="black"/>
<path id="Vector 52" d="M764.8 1258.2C762.9 1262.5 757.8 1264.5 753.5 1262.6C749.2 1260.7 747.2 1255.6 749.1 1251.3C751 1247 756.1 1245 760.4 1246.9C764.7 1248.8 766.7 1253.8 764.8 1258.2Z" fill="white"/>
</g>
<path id="h" d="M884.8 1372.2C850 1391.7 811.9 1394.2 766.3 1392.1C701 1389.1 621.4 1356.2 604.1 1327.1C591.8 1306.4 584.2 1292.1 595.6 1271.2C598.4 1273 601.3 1275.2 604.3 1277.9C604.3 1277.9 616.2 1325.2 679.7 1349.3C743.2 1373.3 804.5 1384.8 884.8 1372.2Z" fill="#D1D3D4"/>
<path id="Vector 53" d="M964.4 1207.6C947.2 1239.5 938.9 1255.7 925.3 1265C921.5 1264.3 919.7 1261.5 919.7 1261.5L910.2 1242.8L897.4 1253L892.7 1223.8L875 1227.3L879.5 1217.1C892.4 1210.1 924.6 1193.4 948.9 1188.9C979.9 1183.3 981.8 1175.5 964.4 1207.6Z" fill="#E5C8C2"/>
<path id="Vector 54" d="M980.1 1180.7C970.5 1178.8 957.3 1178.7 937.3 1179.5C906.7 1180.7 874.8 1192.7 863.8 1197.2L870.8 1190.9C870.8 1190.9 906.4 1163.6 941 1168.1C963.5 1171.2 980.1 1166.9 980.1 1180.7Z" fill="#FBDAA9"/>
<path id="Vector 55" d="M604.5 1258.1C604.5 1258.1 595.7 1254.5 588.4 1268.5C581.2 1282.5 594.9 1302.5 607.1 1291.8C619.4 1281.1 643 1272.6 604.5 1258.1Z" fill="#DC9B87"/>
</g>
</g>
</g>
</svg>
